<svg width="132" height="132" viewBox="0 0 132 132" fill="none" xmlns="http://www.w3.org/2000/svg">
<path fill-rule="evenodd" clip-rule="evenodd" d="M66 13.2C36.839 13.2 13.2 36.839 13.2 66C13.2 95.161 36.839 118.8 66 118.8C95.161 118.8 118.8 95.161 118.8 66C118.8 60.2292 117.875 54.6827 116.172 49.4967C115.035 46.0336 116.92 42.3042 120.383 41.167C123.846 40.0297 127.576 41.9152 128.713 45.3783C130.846 51.8743 132 58.8101 132 66C132 102.451 102.451 132 66 132C29.5488 132 0 102.451 0 66C0 29.5488 29.5488 0 66 0C82.7336 0 98.0251 6.23408 109.658 16.5018C112.391 18.9138 112.651 23.0846 110.239 25.8175C107.827 28.5503 103.656 28.8103 100.923 26.3982C91.6094 18.1777 79.3954 13.2 66 13.2Z" fill="#A4A4A4"/>
<path d="M44.6692 74C44.5252 74 44.4052 73.952 44.3092 73.856C44.2132 73.744 44.1652 73.616 44.1652 73.472C44.1652 73.408 44.1812 73.336 44.2132 73.256L49.7572 60.824H42.5572C42.3972 60.824 42.2532 60.768 42.1252 60.656C42.0132 60.528 41.9572 60.376 41.9572 60.2V57.8C41.9572 57.624 42.0132 57.48 42.1252 57.368C42.2532 57.256 42.3972 57.2 42.5572 57.2H53.7892C53.9812 57.2 54.1332 57.256 54.2452 57.368C54.3572 57.48 54.4132 57.624 54.4132 57.8V59.936C54.4132 60.176 54.3892 60.376 54.3412 60.536C54.2932 60.696 54.2292 60.856 54.1492 61.016L48.6052 73.424C48.5572 73.52 48.4692 73.64 48.3412 73.784C48.2132 73.928 48.0212 74 47.7652 74H44.6692ZM63.179 74.24C62.027 74.24 61.027 74.08 60.179 73.76C59.331 73.424 58.627 72.968 58.067 72.392C57.523 71.816 57.107 71.144 56.819 70.376C56.531 69.608 56.363 68.784 56.315 67.904C56.299 67.472 56.283 66.984 56.267 66.44C56.267 65.88 56.267 65.32 56.267 64.76C56.283 64.184 56.299 63.672 56.315 63.224C56.363 62.344 56.531 61.528 56.819 60.776C57.123 60.008 57.555 59.344 58.115 58.784C58.691 58.208 59.395 57.76 60.227 57.44C61.075 57.12 62.059 56.96 63.179 56.96C64.315 56.96 65.299 57.12 66.131 57.44C66.963 57.76 67.659 58.208 68.219 58.784C68.795 59.344 69.235 60.008 69.539 60.776C69.843 61.528 70.011 62.344 70.043 63.224C70.075 63.672 70.091 64.184 70.091 64.76C70.107 65.32 70.107 65.88 70.091 66.44C70.091 66.984 70.075 67.472 70.043 67.904C70.011 68.784 69.843 69.608 69.539 70.376C69.251 71.144 68.827 71.816 68.267 72.392C67.723 72.968 67.027 73.424 66.179 73.76C65.347 74.08 64.347 74.24 63.179 74.24ZM63.179 70.76C64.011 70.76 64.611 70.496 64.979 69.968C65.363 69.424 65.563 68.696 65.579 67.784C65.611 67.32 65.627 66.832 65.627 66.32C65.643 65.808 65.643 65.296 65.627 64.784C65.627 64.272 65.611 63.8 65.579 63.368C65.563 62.488 65.363 61.776 64.979 61.232C64.611 60.688 64.011 60.408 63.179 60.392C62.347 60.408 61.747 60.688 61.379 61.232C61.011 61.776 60.811 62.488 60.779 63.368C60.763 63.8 60.747 64.272 60.731 64.784C60.731 65.296 60.731 65.808 60.731 66.32C60.747 66.832 60.763 67.32 60.779 67.784C60.811 68.696 61.019 69.424 61.403 69.968C61.787 70.496 62.379 70.76 63.179 70.76ZM74.0435 74C73.6755 74 73.4915 73.84 73.4915 73.52C73.4915 73.424 73.5235 73.336 73.5875 73.256L85.4435 57.656C85.5555 57.512 85.6675 57.4 85.7795 57.32C85.8915 57.24 86.0595 57.2 86.2835 57.2H87.9875C88.3555 57.2 88.5395 57.36 88.5395 57.68C88.5395 57.776 88.5075 57.864 88.4435 57.944L76.5875 73.544C76.4755 73.688 76.3635 73.8 76.2515 73.88C76.1395 73.96 75.9715 74 75.7475 74H74.0435ZM86.1155 74.12C85.0275 74.12 84.1555 73.832 83.4995 73.256C82.8595 72.68 82.4995 71.912 82.4195 70.952C82.4035 70.536 82.3955 70.168 82.3955 69.848C82.3955 69.528 82.4035 69.144 82.4195 68.696C82.4835 67.72 82.8275 66.944 83.4515 66.368C84.0915 65.776 84.9795 65.48 86.1155 65.48C87.2675 65.48 88.1555 65.776 88.7795 66.368C89.4035 66.944 89.7475 67.72 89.8115 68.696C89.8435 69.144 89.8595 69.528 89.8595 69.848C89.8595 70.168 89.8435 70.536 89.8115 70.952C89.7475 71.912 89.3875 72.68 88.7315 73.256C88.0755 73.832 87.2035 74.12 86.1155 74.12ZM86.1155 72.008C86.3875 72.008 86.5955 71.952 86.7395 71.84C86.8995 71.728 87.0195 71.584 87.0995 71.408C87.1795 71.216 87.2195 71.016 87.2195 70.808C87.2515 70.44 87.2675 70.104 87.2675 69.8C87.2675 69.496 87.2515 69.168 87.2195 68.816C87.2035 68.512 87.1155 68.24 86.9555 68C86.7955 67.744 86.5155 67.616 86.1155 67.616C85.7155 67.616 85.4355 67.744 85.2755 68C85.1155 68.24 85.0275 68.512 85.0115 68.816C84.9955 69.168 84.9875 69.496 84.9875 69.8C84.9875 70.104 84.9955 70.44 85.0115 70.808C85.0275 71.016 85.0675 71.216 85.1315 71.408C85.2115 71.584 85.3315 71.728 85.4915 71.84C85.6515 71.952 85.8595 72.008 86.1155 72.008ZM75.9635 65.672C74.8595 65.672 73.9795 65.392 73.3235 64.832C72.6835 64.256 72.3315 63.488 72.2675 62.528C72.2355 62.112 72.2195 61.752 72.2195 61.448C72.2355 61.128 72.2515 60.744 72.2675 60.296C72.3155 59.32 72.6515 58.544 73.2755 57.968C73.9155 57.376 74.8115 57.08 75.9635 57.08C77.1155 57.08 78.0035 57.376 78.6275 57.968C79.2515 58.544 79.5875 59.32 79.6355 60.296C79.6675 60.744 79.6835 61.128 79.6835 61.448C79.6835 61.752 79.6675 62.112 79.6355 62.528C79.5875 63.488 79.2355 64.256 78.5795 64.832C77.9235 65.392 77.0515 65.672 75.9635 65.672ZM75.9635 63.608C76.2195 63.608 76.4275 63.552 76.5875 63.44C76.7475 63.312 76.8675 63.16 76.9475 62.984C77.0275 62.792 77.0675 62.6 77.0675 62.408C77.0995 62.04 77.1155 61.704 77.1155 61.4C77.1155 61.096 77.0995 60.768 77.0675 60.416C77.0515 60.112 76.9555 59.84 76.7795 59.6C76.6195 59.344 76.3475 59.216 75.9635 59.216C75.5635 59.216 75.2755 59.344 75.0995 59.6C74.9395 59.84 74.8515 60.112 74.8355 60.416C74.8195 60.768 74.8115 61.096 74.8115 61.4C74.8115 61.704 74.8195 62.04 74.8355 62.408C74.8515 62.6 74.8915 62.792 74.9555 62.984C75.0355 63.16 75.1555 63.312 75.3155 63.44C75.4755 63.552 75.6915 63.608 75.9635 63.608Z" fill="white"/>
</svg>
