<svg width="132" height="132" viewBox="0 0 132 132" fill="none" xmlns="http://www.w3.org/2000/svg">
<path fill-rule="evenodd" clip-rule="evenodd" d="M66 13.2C36.839 13.2 13.2 36.839 13.2 66C13.2 95.161 36.839 118.8 66 118.8C95.161 118.8 118.8 95.161 118.8 66C118.8 60.2292 117.875 54.6827 116.172 49.4967C115.035 46.0336 116.92 42.3042 120.383 41.167C123.846 40.0297 127.576 41.9152 128.713 45.3783C130.846 51.8743 132 58.8101 132 66C132 102.451 102.451 132 66 132C29.5488 132 0 102.451 0 66C0 29.5488 29.5488 0 66 0C82.7336 0 98.0251 6.23408 109.658 16.5018C112.391 18.9138 112.651 23.0846 110.239 25.8175C107.827 28.5503 103.656 28.8103 100.923 26.3982C91.6094 18.1777 79.3954 13.2 66 13.2Z" fill="#A4A4A4"/>
<path d="M44.6526 74C44.5086 74 44.3886 73.952 44.2926 73.856C44.1966 73.744 44.1486 73.616 44.1486 73.472C44.1486 73.392 44.1566 73.328 44.1726 73.28C44.2046 73.232 44.2286 73.192 44.2446 73.16L47.6286 68.528C47.4046 68.576 47.1726 68.6 46.9326 68.6C46.2126 68.552 45.5086 68.392 44.8206 68.12C44.1326 67.832 43.5086 67.448 42.9486 66.968C42.4046 66.472 41.9726 65.888 41.6526 65.216C41.3326 64.544 41.1726 63.792 41.1726 62.96C41.1726 62.192 41.3166 61.456 41.6046 60.752C41.8926 60.032 42.3246 59.392 42.9006 58.832C43.4766 58.256 44.1886 57.8 45.0366 57.464C45.9006 57.128 46.9006 56.96 48.0366 56.96C49.1726 56.96 50.1726 57.112 51.0366 57.416C51.9166 57.72 52.6526 58.144 53.2446 58.688C53.8526 59.216 54.3086 59.832 54.6126 60.536C54.9166 61.24 55.0686 61.992 55.0686 62.792C55.0686 63.528 54.9326 64.208 54.6606 64.832C54.4046 65.456 54.0846 66.048 53.7006 66.608C53.3166 67.152 52.9326 67.704 52.5486 68.264L48.7086 73.52C48.6446 73.6 48.5486 73.704 48.4206 73.832C48.2926 73.944 48.1006 74 47.8446 74H44.6526ZM48.0846 65.456C48.5646 65.456 48.9966 65.352 49.3806 65.144C49.7646 64.936 50.0686 64.648 50.2926 64.28C50.5166 63.912 50.6286 63.464 50.6286 62.936C50.6286 62.408 50.5166 61.96 50.2926 61.592C50.0686 61.208 49.7646 60.92 49.3806 60.728C48.9966 60.52 48.5646 60.416 48.0846 60.416C47.6206 60.416 47.1966 60.52 46.8126 60.728C46.4286 60.92 46.1246 61.208 45.9006 61.592C45.6766 61.96 45.5646 62.408 45.5646 62.936C45.5646 63.464 45.6766 63.912 45.9006 64.28C46.1246 64.648 46.4286 64.936 46.8126 65.144C47.1966 65.352 47.6206 65.456 48.0846 65.456ZM63.9876 74.24C62.8356 74.24 61.8356 74.08 60.9876 73.76C60.1396 73.424 59.4356 72.968 58.8756 72.392C58.3316 71.816 57.9156 71.144 57.6276 70.376C57.3396 69.608 57.1716 68.784 57.1236 67.904C57.1076 67.472 57.0916 66.984 57.0756 66.44C57.0756 65.88 57.0756 65.32 57.0756 64.76C57.0916 64.184 57.1076 63.672 57.1236 63.224C57.1716 62.344 57.3396 61.528 57.6276 60.776C57.9316 60.008 58.3636 59.344 58.9236 58.784C59.4996 58.208 60.2036 57.76 61.0356 57.44C61.8836 57.12 62.8676 56.96 63.9876 56.96C65.1236 56.96 66.1076 57.12 66.9396 57.44C67.7716 57.76 68.4676 58.208 69.0276 58.784C69.6036 59.344 70.0436 60.008 70.3476 60.776C70.6516 61.528 70.8196 62.344 70.8516 63.224C70.8836 63.672 70.8996 64.184 70.8996 64.76C70.9156 65.32 70.9156 65.88 70.8996 66.44C70.8996 66.984 70.8836 67.472 70.8516 67.904C70.8196 68.784 70.6516 69.608 70.3476 70.376C70.0596 71.144 69.6356 71.816 69.0756 72.392C68.5316 72.968 67.8356 73.424 66.9876 73.76C66.1556 74.08 65.1556 74.24 63.9876 74.24ZM63.9876 70.76C64.8196 70.76 65.4196 70.496 65.7876 69.968C66.1716 69.424 66.3716 68.696 66.3876 67.784C66.4196 67.32 66.4356 66.832 66.4356 66.32C66.4516 65.808 66.4516 65.296 66.4356 64.784C66.4356 64.272 66.4196 63.8 66.3876 63.368C66.3716 62.488 66.1716 61.776 65.7876 61.232C65.4196 60.688 64.8196 60.408 63.9876 60.392C63.1556 60.408 62.5556 60.688 62.1876 61.232C61.8196 61.776 61.6196 62.488 61.5876 63.368C61.5716 63.8 61.5556 64.272 61.5396 64.784C61.5396 65.296 61.5396 65.808 61.5396 66.32C61.5556 66.832 61.5716 67.32 61.5876 67.784C61.6196 68.696 61.8276 69.424 62.2116 69.968C62.5956 70.496 63.1876 70.76 63.9876 70.76ZM74.8521 74C74.4841 74 74.3001 73.84 74.3001 73.52C74.3001 73.424 74.3321 73.336 74.3961 73.256L86.2521 57.656C86.3641 57.512 86.4761 57.4 86.5881 57.32C86.7001 57.24 86.8681 57.2 87.0921 57.2H88.7961C89.1641 57.2 89.3481 57.36 89.3481 57.68C89.3481 57.776 89.3161 57.864 89.2521 57.944L77.3961 73.544C77.2841 73.688 77.1721 73.8 77.0601 73.88C76.9481 73.96 76.7801 74 76.5561 74H74.8521ZM86.9241 74.12C85.8361 74.12 84.9641 73.832 84.3081 73.256C83.6681 72.68 83.3081 71.912 83.2281 70.952C83.2121 70.536 83.2041 70.168 83.2041 69.848C83.2041 69.528 83.2121 69.144 83.2281 68.696C83.2921 67.72 83.6361 66.944 84.2601 66.368C84.9001 65.776 85.7881 65.48 86.9241 65.48C88.0761 65.48 88.9641 65.776 89.5881 66.368C90.2121 66.944 90.5561 67.72 90.6201 68.696C90.6521 69.144 90.6681 69.528 90.6681 69.848C90.6681 70.168 90.6521 70.536 90.6201 70.952C90.5561 71.912 90.1961 72.68 89.5401 73.256C88.8841 73.832 88.0121 74.12 86.9241 74.12ZM86.9241 72.008C87.1961 72.008 87.4041 71.952 87.5481 71.84C87.7081 71.728 87.8281 71.584 87.9081 71.408C87.9881 71.216 88.0281 71.016 88.0281 70.808C88.0601 70.44 88.0761 70.104 88.0761 69.8C88.0761 69.496 88.0601 69.168 88.0281 68.816C88.0121 68.512 87.9241 68.24 87.7641 68C87.6041 67.744 87.3241 67.616 86.9241 67.616C86.5241 67.616 86.2441 67.744 86.0841 68C85.9241 68.24 85.8361 68.512 85.8201 68.816C85.8041 69.168 85.7961 69.496 85.7961 69.8C85.7961 70.104 85.8041 70.44 85.8201 70.808C85.8361 71.016 85.8761 71.216 85.9401 71.408C86.0201 71.584 86.1401 71.728 86.3001 71.84C86.4601 71.952 86.6681 72.008 86.9241 72.008ZM76.7721 65.672C75.6681 65.672 74.7881 65.392 74.1321 64.832C73.4921 64.256 73.1401 63.488 73.0761 62.528C73.0441 62.112 73.0281 61.752 73.0281 61.448C73.0441 61.128 73.0601 60.744 73.0761 60.296C73.1241 59.32 73.4601 58.544 74.0841 57.968C74.7241 57.376 75.6201 57.08 76.7721 57.08C77.9241 57.08 78.8121 57.376 79.4361 57.968C80.0601 58.544 80.3961 59.32 80.4441 60.296C80.4761 60.744 80.4921 61.128 80.4921 61.448C80.4921 61.752 80.4761 62.112 80.4441 62.528C80.3961 63.488 80.0441 64.256 79.3881 64.832C78.7321 65.392 77.8601 65.672 76.7721 65.672ZM76.7721 63.608C77.0281 63.608 77.2361 63.552 77.3961 63.44C77.5561 63.312 77.6761 63.16 77.7561 62.984C77.8361 62.792 77.8761 62.6 77.8761 62.408C77.9081 62.04 77.9241 61.704 77.9241 61.4C77.9241 61.096 77.9081 60.768 77.8761 60.416C77.8601 60.112 77.7641 59.84 77.5881 59.6C77.4281 59.344 77.1561 59.216 76.7721 59.216C76.3721 59.216 76.0841 59.344 75.9081 59.6C75.7481 59.84 75.6601 60.112 75.6441 60.416C75.6281 60.768 75.6201 61.096 75.6201 61.4C75.6201 61.704 75.6281 62.04 75.6441 62.408C75.6601 62.6 75.7001 62.792 75.7641 62.984C75.8441 63.16 75.9641 63.312 76.1241 63.44C76.2841 63.552 76.5001 63.608 76.7721 63.608Z" fill="white"/>
</svg>
