<svg width="135" height="135" viewBox="0 0 135 135" fill="none" xmlns="http://www.w3.org/2000/svg">
<path fill-rule="evenodd" clip-rule="evenodd" d="M67.5 14.5946C38.2807 14.5946 14.5946 38.2807 14.5946 67.5C14.5946 96.7193 38.2807 120.405 67.5 120.405C96.7193 120.405 120.405 96.7193 120.405 67.5C120.405 61.7166 119.478 56.1591 117.772 50.9634C116.515 47.1344 118.599 43.011 122.428 41.7536C126.257 40.4962 130.381 42.5809 131.638 46.4099C133.82 53.054 135 60.1475 135 67.5C135 104.78 104.78 135 67.5 135C30.2204 135 0 104.78 0 67.5C0 30.2204 30.2204 0 67.5 0C84.6135 0 100.253 6.3762 112.15 16.8769C115.172 19.5439 115.46 24.1553 112.793 27.1769C110.126 30.1984 105.514 30.4859 102.493 27.819C93.1599 19.5817 80.9226 14.5946 67.5 14.5946Z" fill="#A4A4A4"/>
</svg>
