<svg width="132" height="132" viewBox="0 0 132 132" fill="none" xmlns="http://www.w3.org/2000/svg">
<path fill-rule="evenodd" clip-rule="evenodd" d="M66 13.2C36.839 13.2 13.2 36.839 13.2 66C13.2 95.161 36.839 118.8 66 118.8C95.161 118.8 118.8 95.161 118.8 66C118.8 60.2292 117.875 54.6827 116.172 49.4967C115.035 46.0336 116.92 42.3042 120.383 41.167C123.846 40.0297 127.576 41.9152 128.713 45.3783C130.846 51.8743 132 58.8101 132 66C132 102.451 102.451 132 66 132C29.5488 132 0 102.451 0 66C0 29.5488 29.5488 0 66 0C82.7336 0 98.0251 6.23408 109.658 16.5018C112.391 18.9138 112.651 23.0846 110.239 25.8175C107.827 28.5503 103.656 28.8103 100.923 26.3982C91.6094 18.1777 79.3954 13.2 66 13.2Z" fill="#A4A4A4"/>
<path d="M48.5534 74.24C47.3694 74.24 46.3294 74.104 45.4334 73.832C44.5534 73.56 43.8254 73.184 43.2494 72.704C42.6734 72.208 42.2414 71.648 41.9534 71.024C41.6654 70.384 41.5214 69.696 41.5214 68.96C41.5214 68.08 41.7374 67.304 42.1694 66.632C42.6174 65.96 43.1774 65.44 43.8494 65.072C43.2894 64.704 42.8574 64.248 42.5534 63.704C42.2654 63.144 42.1214 62.496 42.1214 61.76C42.1214 60.864 42.3534 60.056 42.8174 59.336C43.2814 58.616 43.9854 58.04 44.9294 57.608C45.8734 57.176 47.0814 56.96 48.5534 56.96C50.0094 56.96 51.2094 57.176 52.1534 57.608C53.0974 58.024 53.7934 58.592 54.2414 59.312C54.7054 60.032 54.9374 60.84 54.9374 61.736C54.9374 62.456 54.7934 63.104 54.5054 63.68C54.2174 64.24 53.8014 64.704 53.2574 65.072C53.9614 65.424 54.5294 65.944 54.9614 66.632C55.3934 67.32 55.6094 68.104 55.6094 68.984C55.6094 69.944 55.3454 70.824 54.8174 71.624C54.3054 72.424 53.5294 73.064 52.4894 73.544C51.4494 74.008 50.1374 74.24 48.5534 74.24ZM48.5534 71.192C49.0654 71.192 49.5214 71.104 49.9214 70.928C50.3374 70.736 50.6654 70.48 50.9054 70.16C51.1454 69.824 51.2654 69.432 51.2654 68.984C51.2654 68.504 51.1454 68.104 50.9054 67.784C50.6654 67.464 50.3374 67.216 49.9214 67.04C49.5214 66.864 49.0654 66.776 48.5534 66.776C48.0414 66.776 47.5774 66.864 47.1614 67.04C46.7454 67.216 46.4174 67.464 46.1774 67.784C45.9374 68.104 45.8174 68.504 45.8174 68.984C45.8174 69.432 45.9374 69.824 46.1774 70.16C46.4174 70.48 46.7454 70.736 47.1614 70.928C47.5774 71.104 48.0414 71.192 48.5534 71.192ZM48.5534 63.872C49.0014 63.872 49.4094 63.792 49.7774 63.632C50.1454 63.456 50.4334 63.232 50.6414 62.96C50.8494 62.672 50.9534 62.336 50.9534 61.952C50.9534 61.568 50.8494 61.232 50.6414 60.944C50.4494 60.656 50.1694 60.432 49.8014 60.272C49.4334 60.112 49.0174 60.032 48.5534 60.032C48.0894 60.032 47.6734 60.112 47.3054 60.272C46.9374 60.432 46.6494 60.656 46.4414 60.944C46.2494 61.232 46.1534 61.568 46.1534 61.952C46.1534 62.336 46.2494 62.672 46.4414 62.96C46.6494 63.248 46.9374 63.472 47.3054 63.632C47.6734 63.792 48.0894 63.872 48.5534 63.872ZM64.3636 74.264C62.8596 74.264 61.6036 74.032 60.5956 73.568C59.5876 73.088 58.8196 72.472 58.2916 71.72C57.7796 70.952 57.5076 70.128 57.4756 69.248C57.4756 69.104 57.5236 68.984 57.6196 68.888C57.7156 68.792 57.8356 68.744 57.9796 68.744H61.1956C61.4036 68.744 61.5636 68.792 61.6756 68.888C61.8036 68.968 61.8996 69.072 61.9636 69.2C62.1076 69.568 62.2916 69.872 62.5156 70.112C62.7556 70.352 63.0276 70.528 63.3316 70.64C63.6516 70.752 64.0036 70.808 64.3876 70.808C64.8356 70.808 65.2516 70.712 65.6356 70.52C66.0196 70.328 66.3236 70.048 66.5476 69.68C66.7876 69.296 66.9076 68.84 66.9076 68.312C66.9076 67.832 66.7956 67.416 66.5716 67.064C66.3636 66.712 66.0676 66.432 65.6836 66.224C65.2996 66.016 64.8676 65.912 64.3876 65.912C64.0036 65.912 63.6916 65.96 63.4516 66.056C63.2116 66.136 63.0116 66.24 62.8516 66.368C62.6916 66.496 62.5476 66.608 62.4196 66.704C62.2916 66.784 62.1476 66.824 61.9876 66.824H58.8436C58.6996 66.824 58.5716 66.776 58.4596 66.68C58.3636 66.568 58.3156 66.44 58.3156 66.296L59.1796 57.92C59.2116 57.68 59.2996 57.504 59.4436 57.392C59.5876 57.264 59.7636 57.2 59.9716 57.2H69.5956C69.7716 57.2 69.9156 57.256 70.0276 57.368C70.1396 57.48 70.1956 57.624 70.1956 57.8V60.056C70.1956 60.232 70.1396 60.376 70.0276 60.488C69.9156 60.6 69.7716 60.656 69.5956 60.656H62.6356L62.3236 63.776C62.6756 63.536 63.0836 63.344 63.5476 63.2C64.0276 63.04 64.6756 62.96 65.4916 62.96C66.2596 62.96 66.9876 63.088 67.6756 63.344C68.3796 63.6 69.0036 63.968 69.5476 64.448C70.1076 64.928 70.5396 65.504 70.8436 66.176C71.1636 66.832 71.3236 67.576 71.3236 68.408C71.3236 69.544 71.0436 70.552 70.4836 71.432C69.9396 72.312 69.1476 73.008 68.1076 73.52C67.0676 74.016 65.8196 74.264 64.3636 74.264ZM74.8872 74C74.5192 74 74.3352 73.84 74.3352 73.52C74.3352 73.424 74.3672 73.336 74.4312 73.256L86.2872 57.656C86.3992 57.512 86.5112 57.4 86.6232 57.32C86.7352 57.24 86.9032 57.2 87.1272 57.2H88.8312C89.1992 57.2 89.3832 57.36 89.3832 57.68C89.3832 57.776 89.3512 57.864 89.2872 57.944L77.4312 73.544C77.3192 73.688 77.2072 73.8 77.0952 73.88C76.9832 73.96 76.8152 74 76.5912 74H74.8872ZM86.9592 74.12C85.8712 74.12 84.9992 73.832 84.3432 73.256C83.7032 72.68 83.3432 71.912 83.2632 70.952C83.2472 70.536 83.2392 70.168 83.2392 69.848C83.2392 69.528 83.2472 69.144 83.2632 68.696C83.3272 67.72 83.6712 66.944 84.2952 66.368C84.9352 65.776 85.8232 65.48 86.9592 65.48C88.1112 65.48 88.9992 65.776 89.6232 66.368C90.2472 66.944 90.5912 67.72 90.6552 68.696C90.6872 69.144 90.7032 69.528 90.7032 69.848C90.7032 70.168 90.6872 70.536 90.6552 70.952C90.5912 71.912 90.2312 72.68 89.5752 73.256C88.9192 73.832 88.0472 74.12 86.9592 74.12ZM86.9592 72.008C87.2312 72.008 87.4392 71.952 87.5832 71.84C87.7432 71.728 87.8632 71.584 87.9432 71.408C88.0232 71.216 88.0632 71.016 88.0632 70.808C88.0952 70.44 88.1112 70.104 88.1112 69.8C88.1112 69.496 88.0952 69.168 88.0632 68.816C88.0472 68.512 87.9592 68.24 87.7992 68C87.6392 67.744 87.3592 67.616 86.9592 67.616C86.5592 67.616 86.2792 67.744 86.1192 68C85.9592 68.24 85.8712 68.512 85.8552 68.816C85.8392 69.168 85.8312 69.496 85.8312 69.8C85.8312 70.104 85.8392 70.44 85.8552 70.808C85.8712 71.016 85.9112 71.216 85.9752 71.408C86.0552 71.584 86.1752 71.728 86.3352 71.84C86.4952 71.952 86.7032 72.008 86.9592 72.008ZM76.8072 65.672C75.7032 65.672 74.8232 65.392 74.1672 64.832C73.5272 64.256 73.1752 63.488 73.1112 62.528C73.0792 62.112 73.0632 61.752 73.0632 61.448C73.0792 61.128 73.0952 60.744 73.1112 60.296C73.1592 59.32 73.4952 58.544 74.1192 57.968C74.7592 57.376 75.6552 57.08 76.8072 57.08C77.9592 57.08 78.8472 57.376 79.4712 57.968C80.0952 58.544 80.4312 59.32 80.4792 60.296C80.5112 60.744 80.5272 61.128 80.5272 61.448C80.5272 61.752 80.5112 62.112 80.4792 62.528C80.4312 63.488 80.0792 64.256 79.4232 64.832C78.7672 65.392 77.8952 65.672 76.8072 65.672ZM76.8072 63.608C77.0632 63.608 77.2712 63.552 77.4312 63.44C77.5912 63.312 77.7112 63.16 77.7912 62.984C77.8712 62.792 77.9112 62.6 77.9112 62.408C77.9432 62.04 77.9592 61.704 77.9592 61.4C77.9592 61.096 77.9432 60.768 77.9112 60.416C77.8952 60.112 77.7992 59.84 77.6232 59.6C77.4632 59.344 77.1912 59.216 76.8072 59.216C76.4072 59.216 76.1192 59.344 75.9432 59.6C75.7832 59.84 75.6952 60.112 75.6792 60.416C75.6632 60.768 75.6552 61.096 75.6552 61.4C75.6552 61.704 75.6632 62.04 75.6792 62.408C75.6952 62.6 75.7352 62.792 75.7992 62.984C75.8792 63.16 75.9992 63.312 76.1592 63.44C76.3192 63.552 76.5352 63.608 76.8072 63.608Z" fill="white"/>
</svg>
